<svg width="16" height="16" viewBox="0 0 16 16" fill="none" xmlns="http://www.w3.org/2000/svg">
<path d="M5.87408 0.545327C2.63715 0.999447 0.285221 3.81792 0.515564 6.96746C0.676198 9.17067 2.00976 11.0721 4.0677 12.0243C5.39823 12.6425 6.90456 12.789 8.34117 12.4374C8.93522 12.2909 9.67777 11.9804 10.1445 11.6786L10.3506 11.5467L10.5537 11.743C10.6658 11.8514 11.5266 12.7099 12.4631 13.6503C13.5694 14.7607 14.2119 15.3848 14.2907 15.4229C14.3725 15.4639 14.4877 15.4873 14.6483 15.4932C14.8544 15.5049 14.9029 15.4961 15.0484 15.4287C15.3394 15.2881 15.5 15.0361 15.5 14.7021C15.5 14.3623 15.5121 14.3769 13.5027 12.3612C12.5025 11.3563 11.666 10.5155 11.6478 10.4862C11.6145 10.4451 11.6236 10.4188 11.7054 10.325C11.8903 10.0994 12.2237 9.58963 12.3813 9.28786C12.6783 8.71362 12.8905 8.07199 12.9905 7.43037C13.0632 6.97625 13.0632 6.13539 12.9905 5.66956C12.8177 4.57088 12.3358 3.51908 11.6236 2.69873C10.587 1.50337 9.21405 0.759203 7.63196 0.542397C7.23795 0.486732 6.27415 0.489661 5.87408 0.545327ZM7.42586 2.14207C8.72609 2.312 9.97479 3.10012 10.6931 4.20465C11.2083 5.00156 11.4599 6.00355 11.369 6.91765C11.2356 8.30345 10.5022 9.50467 9.32316 10.2635C7.78653 11.2567 5.79224 11.2596 4.24955 10.2752C2.50076 9.15895 1.74608 7.08172 2.39468 5.18321C2.63412 4.48298 2.97963 3.9439 3.53124 3.41361C4.57991 2.39696 5.94985 1.95163 7.42586 2.14207Z" />
</svg>
