<svg width="186" height="45" viewBox="0 0 186 45" fill="none" xmlns="http://www.w3.org/2000/svg">
<path d="M62.23 6.92383C64.0052 6.92383 65.5714 7.20003 66.9255 7.74934C68.2796 8.29865 69.4309 8.97209 70.3762 9.76967C71.3216 10.5673 72.0423 11.4207 72.5384 12.3331C73.0344 13.2455 73.2965 14.0648 73.3246 14.7879C73.3527 15.0486 73.2653 15.272 73.0625 15.4614C72.8597 15.6507 72.6257 15.7438 72.3636 15.7438H70.5728C70.2514 15.7438 69.9987 15.6848 69.8084 15.57C69.6181 15.4551 69.4215 15.1945 69.2187 14.7879C69.0721 14.4993 68.8318 14.13 68.498 13.68C68.1641 13.23 67.7118 12.7955 67.1439 12.3765C66.5761 11.9576 65.8834 11.5945 65.0691 11.2903C64.2548 10.9862 63.3063 10.8341 62.23 10.8341C61.4156 10.8341 60.6356 10.9272 59.8931 11.1166C59.1505 11.3059 58.4891 11.5883 57.9057 11.9638C57.3222 12.3393 56.8573 12.811 56.5079 13.3759C56.1585 13.9407 55.9838 14.5986 55.9838 15.3527C55.9838 16.1069 56.1522 16.7431 56.4861 17.2644C56.8199 17.7858 57.3597 18.2575 58.1022 18.6765C58.8448 19.0955 59.7839 19.4803 60.9196 19.8279C62.0552 20.1755 63.4374 20.5665 65.0691 21.001C66.729 21.4355 68.1329 21.9134 69.2842 22.4348C70.4355 22.9561 71.3746 23.5427 72.1016 24.1944C72.8285 24.8461 73.362 25.6002 73.6959 26.4537C74.0297 27.3071 74.1982 28.2723 74.1982 29.343C74.1982 30.6464 73.9143 31.8412 73.3464 32.9274C72.7786 34.0136 71.9861 34.9478 70.9659 35.7298C69.9457 36.5119 68.7164 37.1202 67.275 37.5546C65.8335 37.9891 64.2236 38.2064 62.4483 38.2064C60.7604 38.2064 59.2005 37.9612 57.7746 37.4678C56.3488 36.9743 55.1258 36.3381 54.1055 35.556C53.0853 34.774 52.2772 33.905 51.6813 32.9492C51.0854 31.9933 50.7703 31.053 50.7422 30.125C50.7422 29.8644 50.8358 29.6409 51.0261 29.4516C51.2164 29.2623 51.4411 29.1692 51.7031 29.1692H53.494C53.7842 29.1692 54.04 29.2282 54.2584 29.343C54.4768 29.4578 54.6734 29.7185 54.8481 30.125C55.0228 30.5316 55.2911 30.9723 55.6562 31.4502C56.0212 31.9281 56.5079 32.3781 57.1194 32.7971C57.7309 33.2161 58.4735 33.573 59.3471 33.8616C60.2207 34.1502 61.2534 34.2961 62.4483 34.2961C63.4686 34.2961 64.4358 34.1812 65.353 33.9485C66.2703 33.7157 67.0784 33.3836 67.7773 32.9492C68.4761 32.5147 69.0284 31.9933 69.4371 31.385C69.8458 30.7768 70.0486 30.0971 70.0486 29.343C70.0486 28.5889 69.8146 27.9464 69.3497 27.4095C68.8849 26.8727 68.2141 26.3885 67.3405 25.954C66.4669 25.5196 65.3967 25.1223 64.13 24.7592C62.8633 24.3961 61.4281 24.0144 59.8276 23.6078C58.3705 23.2323 57.135 22.7761 56.1148 22.2392C55.0946 21.7023 54.2646 21.0879 53.625 20.3927C52.9855 19.6975 52.5268 18.931 52.2491 18.09C51.9715 17.2489 51.8342 16.3365 51.8342 15.3527C51.8342 14.2821 52.0526 13.2393 52.4894 12.2245C52.9262 11.2097 53.5751 10.3128 54.4331 9.53071C55.2911 8.74864 56.3706 8.11865 57.6654 7.64072C58.9633 7.16279 60.4828 6.92383 62.23 6.92383Z" fill="#84A5D9" stroke="#84A5D9" stroke-width="0.315541" stroke-miterlimit="10"/>
<path d="M78.5114 37.9663C78.19 37.9663 77.9155 37.8515 77.6815 37.6187C77.4475 37.386 77.332 37.1129 77.332 36.7932V8.72583C77.332 8.40618 77.4475 8.13308 77.6815 7.90032C77.9155 7.66756 78.19 7.55273 78.5114 7.55273H80.3023C80.6236 7.55273 80.8982 7.66756 81.1322 7.90032C81.3662 8.13308 81.4816 8.40618 81.4816 8.72583V36.7932C81.4816 37.1129 81.3662 37.386 81.1322 37.6187C80.8982 37.8515 80.6236 37.9663 80.3023 37.9663H78.5114Z" fill="#84A5D9" stroke="#84A5D9" stroke-width="0.315541" stroke-miterlimit="10"/>
<path d="M84.7413 18.6113C84.8006 17.0193 85.0845 15.511 85.593 14.0927C86.1016 12.6745 86.8754 11.4269 87.9081 10.3562C88.9408 9.28554 90.2293 8.44451 91.7737 7.83624C93.3181 7.22796 95.1371 6.92383 97.2337 6.92383C99.2149 6.92383 100.953 7.21245 102.453 7.79279C103.954 8.37313 105.205 9.09002 106.21 9.94346C107.215 10.7969 107.973 11.7093 108.481 12.6807C108.99 13.6521 109.261 14.5272 109.289 15.3093C109.317 15.57 109.23 15.7934 109.027 15.9827C108.824 16.172 108.59 16.2651 108.328 16.2651H106.537C105.839 16.2651 105.417 16.1069 105.271 15.7872C104.921 15.092 104.522 14.4403 104.07 13.8321C103.617 13.2238 103.087 12.7024 102.475 12.2679C101.864 11.8334 101.127 11.4859 100.269 11.2252C99.4114 10.9645 98.3974 10.8341 97.2337 10.8341C96.0387 10.8341 94.9405 11.0017 93.9359 11.3338C92.9312 11.6659 92.0639 12.1655 91.3369 12.8328C90.61 13.5 90.0265 14.3317 89.5897 15.331C89.1529 16.3303 88.9189 17.4972 88.8909 18.8286C88.8316 20.132 88.8035 21.333 88.8035 22.4348C88.8035 23.5365 88.8316 24.7375 88.8909 26.0409C88.9189 27.4313 89.1529 28.6478 89.5897 29.6906C90.0265 30.7333 90.61 31.5961 91.3369 32.2757C92.0639 32.9554 92.9312 33.4643 93.9359 33.7964C94.9405 34.1285 96.0387 34.2961 97.2337 34.2961C98.3974 34.2961 99.4894 34.1502 100.51 33.8616C101.53 33.573 102.416 33.1012 103.174 32.4495C103.932 31.7978 104.522 30.9506 104.943 29.9078C105.364 28.8651 105.577 27.5895 105.577 26.0844V24.8678H99.2866C98.9653 24.8678 98.6907 24.753 98.4567 24.5203C98.2227 24.2875 98.1073 24.0144 98.1073 23.6947V22.1306C98.1073 21.811 98.2227 21.5379 98.4567 21.3051C98.6907 21.0724 98.9653 20.9575 99.2866 20.9575H108.547C108.868 20.9575 109.143 21.0724 109.377 21.3051C109.611 21.5379 109.726 21.811 109.726 22.1306V26.2582C109.726 27.9961 109.448 29.5975 108.896 31.0592C108.344 32.5209 107.536 33.7809 106.472 34.8391C105.408 35.8974 104.098 36.7229 102.541 37.3157C100.984 37.9084 99.2149 38.2064 97.2337 38.2064C95.1371 38.2064 93.3181 37.896 91.7737 37.2722C90.2293 36.6485 88.9502 35.8012 87.9299 34.7305C86.9097 33.6599 86.139 32.3999 85.6149 30.9506C85.0907 29.5013 84.8006 27.9371 84.7413 26.2582C84.6539 23.7103 84.6539 21.1592 84.7413 18.6113Z" fill="#84A5D9" stroke="#84A5D9" stroke-width="0.315541" stroke-miterlimit="10"/>
<path d="M178.447 31.1015H163.29L161.019 36.8801C160.932 37.1129 160.772 37.3518 160.538 37.597C160.304 37.8422 159.899 37.9663 159.315 37.9663H157.699C157.437 37.9663 157.213 37.8732 157.022 37.6839C156.832 37.4946 156.738 37.2712 156.738 37.0105C156.738 36.8646 156.798 36.6629 156.913 36.4022L167.615 8.98652C167.761 8.66687 167.98 8.35032 168.27 8.03066C168.56 7.71101 168.997 7.55273 169.58 7.55273H172.201C172.784 7.55273 173.221 7.71101 173.511 8.03066C173.801 8.35032 174.02 8.66687 174.166 8.98652L184.824 36.4022C184.94 36.6629 184.999 36.8646 184.999 37.0105C184.999 37.2712 184.905 37.4946 184.715 37.6839C184.525 37.8732 184.3 37.9663 184.038 37.9663H182.422C181.839 37.9663 181.433 37.8422 181.199 37.597C180.965 37.3518 180.806 37.1129 180.718 36.8801L178.447 31.1015ZM164.819 27.1912H176.918L170.891 11.6803L164.819 27.1912Z" fill="#84A5D9" stroke="#84A5D9" stroke-width="0.315541" stroke-miterlimit="10"/>
<path d="M116.308 13.1271V35.0452C116.308 35.4007 116.594 35.6871 116.95 35.6871H120.389C120.565 35.6871 120.736 35.7501 120.868 35.8633C121.202 36.1497 121.53 36.4298 121.858 36.713C122.185 36.9962 121.999 37.5312 121.568 37.5501C119.768 37.6224 116.374 37.6602 114.861 37.5878C114.549 37.5721 114.306 37.3203 114.3 37.0088C114.231 33.5441 114.209 14.4457 114.272 9.24703C114.278 8.71836 114.896 8.43199 115.308 8.76556C121.306 13.6243 127.215 18.4076 133.219 23.2695C133.49 23.4898 133.881 23.4898 134.152 23.2695C140.465 18.1433 146.752 13.0359 153.046 7.9222C153.197 7.79947 153.427 7.89387 153.446 8.08898C153.5 8.60507 153.503 9.41067 153.443 9.98026C153.437 10.0463 153.402 10.103 153.351 10.1439C146.982 15.3237 140.587 20.5192 134.177 25.7335C133.903 25.957 133.512 25.9538 133.241 25.7304C127.959 21.3783 122.686 17.0356 117.351 12.6425C116.935 12.2964 116.308 12.589 116.308 13.1271Z" fill="#84A5D9" stroke="#84A5D9" stroke-width="1.5777" stroke-miterlimit="10"/>
<path d="M145.359 36.896C145.771 36.5404 146.188 36.1786 146.622 35.8041C146.692 35.7443 146.78 35.7097 146.871 35.7097H151.202C151.41 35.7097 151.58 35.5397 151.58 35.332V17.9833C151.58 17.6655 151.208 17.4892 150.962 17.6906C145.494 22.1089 140.08 26.5208 134.631 30.9453C134.098 31.3764 133.335 31.3827 132.799 30.9547C128.649 27.6505 124.577 24.255 120.467 20.9036C120.228 20.7085 120.086 20.4127 120.086 20.1043V19.1413C120.086 18.7354 120.562 18.512 120.877 18.77C124.867 22.027 128.81 25.2494 132.765 28.4781C133.301 28.9156 134.07 28.9156 134.605 28.4813C140.887 23.3833 147.133 18.3137 153.361 13.2567C153.43 13.2126 153.442 13.2693 153.446 13.285C153.471 13.4329 153.474 13.6028 153.487 13.757C153.439 21.5613 153.578 29.4033 153.439 37.1919C153.436 37.3995 153.266 37.5632 153.058 37.5632H145.608C145.255 37.5632 145.094 37.1258 145.359 36.896Z" fill="#84A5D9" stroke="#84A5D9" stroke-width="1.5777" stroke-miterlimit="10"/>
<path d="M17.3492 42.4773V36.3549V30.7889V28.6481C17.3492 28.1856 16.9716 27.8105 16.5058 27.8105H9.52008C9.05437 27.8105 8.67676 28.1825 8.67676 28.645L8.64844 36.3518C8.64844 41.124 12.5441 44.9931 17.3492 44.9931L19.3631 45.0025C17.2642 44.5274 17.3492 42.4773 17.3492 42.4773Z" fill="url(#paint0_linear_1901_290)"/>
<path d="M27.8307 38.8103V36.357L17.352 36.3164V36.3539V42.4762C17.352 42.4762 17.2671 44.517 19.3502 44.9983H27.8307V42.7919H27.8118V38.8103H27.8307Z" fill="url(#paint1_linear_1901_290)"/>
<path opacity="0.4" d="M19.4069 42.5488C18.381 41.4894 17.6573 39.1423 17.3521 37.6172V42.4738C17.3521 42.4738 17.3048 43.602 18.1387 44.3802C18.3527 44.549 18.6139 44.7146 18.9254 44.8646C19.023 44.9021 19.1237 44.9365 19.2307 44.9646L23.463 44.9802C22.969 44.9271 21.3075 44.5115 19.4069 42.5488Z" fill="url(#paint2_linear_1901_290)"/>
<path opacity="0.24" d="M19.2607 44.9747C18.2159 44.6997 17.7439 44.0246 17.53 43.4433C17.3632 43.0621 17.3569 42.4745 17.3569 42.4745V36.3522V30.7862V28.6454C17.3569 28.611 17.3537 28.5766 17.3506 28.5422C17.3506 28.5329 17.3474 28.5235 17.3474 28.5141C17.3443 28.4891 17.338 28.461 17.3317 28.436C17.3286 28.4266 17.3286 28.4204 17.3254 28.411C17.316 28.3797 17.3034 28.3453 17.2908 28.3172C17.2908 28.3141 17.2877 28.311 17.2877 28.3078C17.2751 28.2797 17.2625 28.2547 17.2467 28.2266C17.2436 28.2203 17.2373 28.2141 17.2342 28.2047C17.2184 28.1797 17.2027 28.1578 17.1838 28.1328C17.1807 28.1297 17.1775 28.1266 17.1744 28.1203C17.1523 28.0922 17.1303 28.0672 17.1051 28.0453C17.102 28.0422 17.0989 28.0391 17.0957 28.0391C17.0737 28.0172 17.0485 27.9984 17.0265 27.9797C17.0202 27.9766 17.017 27.9703 17.0107 27.9672C16.9824 27.9484 16.9541 27.9297 16.9258 27.9141C17.124 28.0672 17.253 28.3047 17.253 28.5735V30.7143V36.2803V42.4026C17.253 42.4026 17.08 44.3934 19.0372 44.9997H19.3299C19.3016 44.9935 19.2827 44.9841 19.2607 44.9747Z" fill="white"/>
<path d="M42.5255 27.8107H36.361H30.7567H28.6011C28.1354 27.8107 27.7578 28.1857 27.7578 28.6483V35.5863C27.7578 36.0488 28.1323 36.4238 28.598 36.4238L36.3579 36.452C41.1629 36.452 45.0586 32.5829 45.0586 27.8107L45.068 25.8105C44.5929 27.8951 42.5255 27.8107 42.5255 27.8107Z" fill="url(#paint3_linear_1901_290)"/>
<path d="M38.8314 17.4043H36.3612L36.3203 27.8113H36.3581H42.5225C42.5225 27.8113 44.5774 27.8957 45.062 25.8268V17.4043H42.8404V17.423H38.8314V17.4043Z" fill="url(#paint4_linear_1901_290)"/>
<path opacity="0.4" d="M42.6023 25.7706C41.5355 26.7894 39.1723 27.5082 37.6367 27.8114H42.5268C42.5268 27.8114 43.6627 27.8583 44.4463 27.0301C44.6162 26.8176 44.783 26.5582 44.934 26.2488C44.9718 26.1519 45.0064 26.0519 45.0347 25.9456L45.0504 21.7422C44.9969 22.2328 44.5784 23.8861 42.6023 25.7706Z" fill="url(#paint5_linear_1901_290)"/>
<path opacity="0.24" d="M45.0413 25.9223C44.7644 26.9598 44.0847 27.4286 43.4994 27.6411C43.1155 27.8068 42.5239 27.813 42.5239 27.813H36.3595H30.7551H28.5996C28.565 27.813 28.5304 27.8162 28.4958 27.8193C28.4863 27.8193 28.4769 27.8224 28.4675 27.8224C28.4423 27.8255 28.414 27.8318 28.3888 27.838C28.3793 27.8412 28.3731 27.8412 28.3636 27.8443C28.3321 27.8537 28.2975 27.8662 28.2692 27.8787C28.2661 27.8787 28.2629 27.8818 28.2598 27.8818C28.2314 27.8943 28.2063 27.9068 28.178 27.9224C28.1717 27.9255 28.1654 27.9318 28.1559 27.9349C28.1308 27.9505 28.1087 27.9662 28.0836 27.9849C28.0804 27.9881 28.0773 27.9912 28.071 27.9943C28.0426 28.0162 28.0175 28.0381 27.9954 28.0631C27.9923 28.0662 27.9892 28.0693 27.9892 28.0724C27.9671 28.0943 27.9482 28.1193 27.9294 28.1412C27.9262 28.1474 27.9199 28.1506 27.9168 28.1568C27.8979 28.1849 27.879 28.2131 27.8633 28.2412C28.0175 28.0443 28.2566 27.9162 28.5272 27.9162H30.6828H36.2871H42.4516C42.4516 27.9162 44.456 28.0881 45.0665 26.1442V25.8535C45.0602 25.8785 45.0476 25.9004 45.0413 25.9223Z" fill="white"/>
<path d="M27.717 2.52324V8.64557V14.2116V16.3524C27.717 16.8149 28.0946 17.19 28.5604 17.19H35.5461C36.0118 17.19 36.3895 16.8181 36.3895 16.3555L36.4178 8.64869C36.4178 3.87646 32.5221 0.00742249 27.717 0.00742249L25.7031 -0.00195312C27.8051 0.473082 27.717 2.52324 27.717 2.52324Z" fill="url(#paint6_linear_1901_290)"/>
<path d="M17.2422 6.19109V8.64439L27.7208 8.68502V8.64752V2.52206C27.7208 2.52206 27.8058 0.481286 25.7227 0H17.2422V2.20641H17.2611V6.18796H17.2422V6.19109Z" fill="url(#paint7_linear_1901_290)"/>
<path opacity="0.4" d="M25.6687 2.44823C26.6945 3.50768 27.4183 5.85473 27.7235 7.37985V2.52323C27.7235 2.52323 27.7707 1.39502 26.9368 0.616842C26.7228 0.448079 26.4616 0.282442 26.1501 0.132431C26.0526 0.094928 25.9519 0.0605504 25.8449 0.0324233L21.6094 0.0136719C22.1066 0.0699261 23.768 0.488707 25.6687 2.44823Z" fill="url(#paint8_linear_1901_290)"/>
<path opacity="0.24" d="M25.8114 0.0261739C26.8561 0.301194 27.3281 0.976245 27.5421 1.55754C27.7089 1.93882 27.7152 2.52636 27.7152 2.52636V8.64869V14.2116V16.3524C27.7152 16.3868 27.7183 16.4211 27.7215 16.4555C27.7215 16.4649 27.7246 16.4743 27.7246 16.4837C27.7278 16.5087 27.7341 16.5368 27.7404 16.5618C27.7435 16.5712 27.7435 16.5774 27.7467 16.5868C27.7561 16.618 27.7687 16.6524 27.7813 16.6805C27.7813 16.6837 27.7844 16.6868 27.7844 16.6899C27.797 16.718 27.8096 16.743 27.8253 16.7712C27.8285 16.7774 27.8348 16.7837 27.8379 16.793C27.8537 16.818 27.8694 16.8399 27.8883 16.8649C27.8914 16.8681 27.8946 16.8712 27.8977 16.8774C27.9197 16.9056 27.9418 16.9306 27.9669 16.9524C27.9701 16.9556 27.9732 16.9587 27.9764 16.9587C27.9984 16.9806 28.0236 16.9993 28.0456 17.0181C28.0519 17.0212 28.055 17.0274 28.0613 17.0306C28.0897 17.0493 28.118 17.0681 28.1463 17.0837C27.9481 16.9306 27.819 16.693 27.819 16.4243V14.2835V8.71745V2.59512C27.819 2.59512 27.9921 0.604342 26.0348 -0.00195312H25.7422C25.7705 0.00742257 25.7894 0.0167982 25.8114 0.0261739Z" fill="white"/>
<path d="M2.54257 17.1842H8.70703H14.3114H16.4669C16.9326 17.1842 17.3102 16.8092 17.3102 16.3467V9.40866C17.3102 8.94612 16.9358 8.5711 16.47 8.5711L8.71018 8.54297C3.9051 8.54297 0.00944014 12.412 0.00944014 17.1842L0 19.1844C0.475158 17.0967 2.54257 17.1842 2.54257 17.1842Z" fill="url(#paint9_linear_1901_290)"/>
<path d="M6.23445 27.5931H8.70464L8.74555 17.186H8.70779H2.54333C2.54333 17.186 0.488504 17.1016 0.00390625 19.1705V27.5931H2.2255V27.5743H6.23445V27.5931Z" fill="url(#paint10_linear_1901_290)"/>
<path opacity="0.4" d="M2.46303 19.2229C3.52977 18.2041 5.89297 17.4853 7.42858 17.1821H2.53855C2.53855 17.1821 1.40258 17.1352 0.619039 17.9634C0.449115 18.1759 0.282338 18.4353 0.131295 18.7447C0.0935339 18.8416 0.0589198 18.9416 0.0305992 19.0479L0.0117188 23.2545C0.0683601 22.7607 0.486876 21.1105 2.46303 19.2229Z" fill="url(#paint11_linear_1901_290)"/>
<path opacity="0.24" d="M0.0251739 19.0748C0.302087 18.0372 0.981783 17.5684 1.56708 17.3559C1.95098 17.1903 2.54257 17.184 2.54257 17.184H8.70703H14.3114H16.4669C16.5015 17.184 16.5361 17.1809 16.5707 17.1778C16.5802 17.1778 16.5896 17.1746 16.5991 17.1746C16.6242 17.1715 16.6525 17.1653 16.6777 17.159C16.6872 17.1559 16.6935 17.1559 16.7029 17.1528C16.7344 17.1434 16.769 17.1309 16.7973 17.1184C16.8004 17.1184 16.8036 17.1153 16.8067 17.1153C16.8351 17.1028 16.8602 17.0903 16.8886 17.0746C16.8948 17.0715 16.9011 17.0653 16.9106 17.0621C16.9358 17.0465 16.9578 17.0309 16.983 17.0121C16.9861 17.009 16.9892 17.0059 16.9955 17.0028C17.0239 16.9809 17.049 16.959 17.0711 16.934C17.0742 16.9309 17.0774 16.9277 17.0774 16.9246C17.0994 16.9027 17.1183 16.8777 17.1371 16.8559C17.1403 16.8496 17.1466 16.8465 17.1497 16.8402C17.1686 16.8121 17.1875 16.784 17.2032 16.7559C17.049 16.9527 16.8099 17.0809 16.5393 17.0809H14.3837H8.7794H2.61494C2.61494 17.0809 0.610467 16.909 0 18.8529V19.1435C0.00629348 19.1154 0.0157337 19.0967 0.0251739 19.0748Z" fill="url(#paint12_linear_1901_290)"/>
<defs>
<linearGradient id="paint0_linear_1901_290" x1="14.0073" y1="45.0033" x2="14.0073" y2="27.8113" gradientUnits="userSpaceOnUse">
<stop stop-color="#84A5D9"/>
<stop offset="0.9941" stop-color="white"/>
</linearGradient>
<linearGradient id="paint1_linear_1901_290" x1="15.3281" y1="40.6582" x2="30.6117" y2="40.6582" gradientUnits="userSpaceOnUse">
<stop stop-color="#84A5D9"/>
<stop offset="0.9941" stop-color="white"/>
</linearGradient>
<linearGradient id="paint2_linear_1901_290" x1="16.5799" y1="41.2995" x2="23.6991" y2="41.2995" gradientUnits="userSpaceOnUse">
<stop stop-color="#A4C3F3"/>
<stop offset="0.1587" stop-color="#99B5DF"/>
<stop offset="0.4845" stop-color="#7E90AB"/>
<stop offset="0.9454" stop-color="#525457"/>
<stop offset="1" stop-color="#4D4D4D"/>
</linearGradient>
<linearGradient id="paint3_linear_1901_290" x1="26.3373" y1="31.4022" x2="41.7053" y2="31.1103" gradientUnits="userSpaceOnUse">
<stop stop-color="white"/>
<stop offset="1" stop-color="#EA1414"/>
</linearGradient>
<linearGradient id="paint4_linear_1901_290" x1="40.6927" y1="29.8247" x2="40.6927" y2="14.6455" gradientUnits="userSpaceOnUse">
<stop stop-color="#EA1414"/>
<stop offset="1" stop-color="white"/>
</linearGradient>
<linearGradient id="paint5_linear_1901_290" x1="41.3452" y1="28.5815" x2="41.3452" y2="21.5109" gradientUnits="userSpaceOnUse">
<stop stop-color="#A4C3F3"/>
<stop offset="0.00360007" stop-color="#AAB3DF"/>
<stop offset="0.011" stop-color="#BB8AAA"/>
<stop offset="0.0214" stop-color="#D54957"/>
<stop offset="0.0293" stop-color="#EA1414"/>
<stop offset="0.2044" stop-color="#D31C1C"/>
<stop offset="0.5714" stop-color="#993232"/>
<stop offset="1" stop-color="#4D4D4D"/>
</linearGradient>
<linearGradient id="paint6_linear_1901_290" x1="31.1582" y1="17.3089" x2="31.0153" y2="-2.27398" gradientUnits="userSpaceOnUse">
<stop stop-color="white"/>
<stop offset="0.0849" stop-color="#EBF1F9"/>
<stop offset="0.2703" stop-color="#C6D6EE"/>
<stop offset="0.4558" stop-color="#A9C0E5"/>
<stop offset="0.6393" stop-color="#95B1DE"/>
<stop offset="0.8199" stop-color="#88A8DA"/>
<stop offset="0.9941" stop-color="#84A5D9"/>
</linearGradient>
<linearGradient id="paint7_linear_1901_290" x1="14.9047" y1="5.06013" x2="33.4735" y2="3.27949" gradientUnits="userSpaceOnUse">
<stop stop-color="white"/>
<stop offset="0.9941" stop-color="#84A5D9"/>
</linearGradient>
<linearGradient id="paint8_linear_1901_290" x1="22.4639" y1="3.65329" x2="27.6192" y2="3.71818" gradientUnits="userSpaceOnUse">
<stop stop-color="#A4C3F3"/>
<stop offset="0.1587" stop-color="#99B5DF"/>
<stop offset="0.4845" stop-color="#7E90AB"/>
<stop offset="0.9454" stop-color="#525457"/>
<stop offset="1" stop-color="#4D4D4D"/>
</linearGradient>
<linearGradient id="paint9_linear_1901_290" x1="0.0015419" y1="13.8645" x2="17.3118" y2="13.8645" gradientUnits="userSpaceOnUse">
<stop stop-color="#EA1414"/>
<stop offset="0.9941" stop-color="white"/>
</linearGradient>
<linearGradient id="paint10_linear_1901_290" x1="4.37627" y1="17.7848" x2="4.37627" y2="27.6925" gradientUnits="userSpaceOnUse">
<stop stop-color="#EA1414"/>
<stop offset="0.9941" stop-color="white"/>
</linearGradient>
<linearGradient id="paint11_linear_1901_290" x1="0.0132607" y1="20.2189" x2="7.43013" y2="20.2189" gradientUnits="userSpaceOnUse">
<stop stop-color="#EA1414"/>
<stop offset="0.1666" stop-color="#D61B1B"/>
<stop offset="0.5086" stop-color="#A22E2E"/>
<stop offset="0.9926" stop-color="#4E4D4D"/>
<stop offset="1" stop-color="#4D4D4D"/>
</linearGradient>
<linearGradient id="paint12_linear_1901_290" x1="0.0015419" y1="17.9505" x2="17.2048" y2="17.9505" gradientUnits="userSpaceOnUse">
<stop stop-color="white"/>
<stop offset="0.0114" stop-color="#FAFCFE"/>
<stop offset="0.0822" stop-color="#DFEAFB"/>
<stop offset="0.1637" stop-color="#C9DCF8"/>
<stop offset="0.2589" stop-color="#B8D1F6"/>
<stop offset="0.3766" stop-color="#ADC9F4"/>
<stop offset="0.5417" stop-color="#A6C4F3"/>
<stop offset="1" stop-color="#A4C3F3"/>
</linearGradient>
</defs>
</svg>
