<svg width="421" height="420" viewBox="0 0 421 420" fill="none" xmlns="http://www.w3.org/2000/svg">
<g clip-path="url(#clip0_405_1808)">
<path d="M294.616 372.068H270.879V372.315H294.616V372.068Z" fill="#EBEBEB"/>
<path d="M126.106 374.17H49.082V374.417H126.106V374.17Z" fill="#EBEBEB"/>
<path d="M209.063 379.357H163.566V379.604H209.063V379.357Z" fill="#EBEBEB"/>
<path d="M223.775 308.576H-14.9607C-18.7933 308.576 -22.0078 305.364 -22.0078 301.534V-33.7244C-22.0078 -37.5539 -18.7933 -40.7656 -14.9607 -40.7656H223.775C227.608 -40.7656 230.822 -37.5539 230.822 -33.7244V301.534C230.822 305.364 227.731 308.576 223.775 308.576ZM-14.9607 -40.5186C-18.6697 -40.5186 -21.7605 -37.5539 -21.7605 -33.7244V301.534C-21.7605 305.24 -18.7933 308.328 -14.9607 308.328H223.775C227.484 308.328 230.575 305.364 230.575 301.534V-33.7244C230.575 -37.4303 227.608 -40.5186 223.775 -40.5186H-14.9607Z" fill="#EBEBEB"/>
<path d="M491.193 308.576H252.457C248.625 308.576 245.41 305.364 245.41 301.534V-33.7244C245.41 -37.5539 248.625 -40.7656 252.457 -40.7656H491.193C495.026 -40.7656 498.24 -37.5539 498.24 -33.7244V301.534C498.24 305.364 495.149 308.576 491.193 308.576ZM252.457 -40.5186C248.748 -40.5186 245.657 -37.5539 245.657 -33.7244V301.534C245.657 305.24 248.625 308.328 252.457 308.328H491.193C494.902 308.328 497.993 305.364 497.993 301.534V-33.7244C497.993 -37.4303 495.026 -40.5186 491.193 -40.5186H252.457Z" fill="#EBEBEB"/>
<path d="M284.364 181.832H196.461V184.426H284.364V181.832Z" fill="#E0E0E0"/>
<path d="M284.364 181.833H196.461L204.992 131.557H292.895L284.364 181.833Z" fill="#E0E0E0"/>
<path d="M282.755 181.833H194.852L203.259 131.557H291.286L282.755 181.833Z" fill="#EBEBEB"/>
<path d="M198.187 177.88L205.358 135.139C205.481 134.644 205.976 134.15 206.47 134.15H286.832C287.574 134.15 288.068 134.768 287.945 135.509L280.774 178.25C280.65 178.745 280.156 179.239 279.661 179.239H199.3C198.558 179.239 198.063 178.621 198.187 177.88Z" fill="#FAFAFA"/>
<path d="M264.454 181.832H176.551V184.426H264.454V181.832Z" fill="#F0F0F0"/>
<path d="M354.709 -0.246094H121.66V74.9833H354.709V-0.246094Z" fill="#D5DFF6"/>
<path d="M354.681 74.8965H358.02V-0.332924H354.681V74.8965Z" fill="#C2CEEB"/>
<path d="M344.571 9.88086H131.922V64.7279H344.571V9.88086Z" fill="white"/>
<path d="M250.912 37.2625L238.148 24.5098L225.385 37.2625L238.148 50.0153L250.912 37.2625Z" fill="#D5DFF6"/>
<path d="M216.549 37.2528L203.785 24.5L191.022 37.2528L203.785 50.0055L216.549 37.2528Z" fill="#D5DFF6"/>
<path d="M182.271 37.3328L169.508 24.5801L156.744 37.3328L169.508 50.0856L182.271 37.3328Z" fill="#D5DFF6"/>
<path d="M285.283 37.2762L272.52 24.5234L259.756 37.2762L272.52 50.029L285.283 37.2762Z" fill="#D5DFF6"/>
<path d="M319.646 37.284L306.883 24.5312L294.119 37.284L306.883 50.0368L319.646 37.284Z" fill="#D5DFF6"/>
<path d="M210.5 418.987C326.756 418.987 421 412.87 421 405.325C421 397.779 326.756 391.662 210.5 391.662C94.2441 391.662 0 397.779 0 405.325C0 412.87 94.2441 418.987 210.5 418.987Z" fill="#D5DFF7"/>
<path d="M379.434 43.2329C379.805 37.0564 375.231 32.1152 369.049 32.1152H197.941C191.759 32.1152 186.443 37.0564 186.072 43.2329L182.116 102.403L157.513 284.486C156.647 290.662 160.974 295.603 167.156 295.603H338.264C344.446 295.603 350.133 290.662 350.875 284.486L375.602 102.527L379.434 43.2329Z" fill="#568AFF"/>
<path opacity="0.2" d="M379.434 43.2329C379.805 37.0564 375.231 32.1152 369.049 32.1152H197.941C191.759 32.1152 186.443 37.0564 186.072 43.2329L182.116 102.403L157.513 284.486C156.647 290.662 160.974 295.603 167.156 295.603H338.264C344.446 295.603 350.133 290.662 350.875 284.486L375.602 102.527L379.434 43.2329Z" fill="black"/>
<path d="M332.204 295.727H160.972C154.791 295.727 150.464 290.786 151.329 284.61L176.056 102.527H369.542L344.939 284.61C343.95 290.786 338.262 295.727 332.204 295.727Z" fill="#568AFF"/>
<path d="M223.281 27.793H197.812V29.0283H223.281V27.793Z" fill="#568AFF"/>
<path d="M185.827 30.3871L185.332 29.2753C187.434 28.2871 189.659 27.793 191.885 27.793V29.0283C189.783 29.0283 187.805 29.5224 185.827 30.3871Z" fill="#568AFF"/>
<path d="M362.992 32.1152H191.884C185.702 32.1152 180.386 37.0564 180.015 43.2329L176.059 102.403H369.545L373.377 43.2329C373.748 37.1799 369.174 32.1152 362.992 32.1152Z" fill="#568AFF"/>
<path opacity="0.9" d="M185.572 88.075L188.292 46.6926C188.539 43.4808 191.259 40.8867 194.597 40.8867H359.153C362.367 40.8867 364.84 43.4808 364.593 46.6926L361.873 88.075C361.626 91.2867 358.906 93.8808 355.568 93.8808H191.012C187.797 93.8808 185.324 91.2867 185.572 88.075Z" fill="white"/>
<g opacity="0.4">
<path d="M347.288 47.5581L345.434 49.2875C345.31 49.411 345.186 49.411 345.063 49.411H335.172C335.048 49.411 334.925 49.411 334.801 49.2875L333.194 47.5581C332.947 47.1875 333.07 46.6934 333.565 46.6934H346.917C347.412 46.6934 347.535 47.1875 347.288 47.5581Z" fill="#568AFF"/>
<path d="M344.57 79.6766H331.217C330.723 79.6766 330.476 79.059 330.847 78.8119L332.701 77.0825C332.825 76.959 332.948 76.959 333.072 76.959H342.963C343.086 76.959 343.21 76.959 343.334 77.0825L344.941 78.8119C345.312 79.059 345.064 79.6766 344.57 79.6766Z" fill="#568AFF"/>
<path d="M345.929 63.4931L344.94 64.3578C344.816 64.4813 344.693 64.4813 344.569 64.4813H332.948C332.7 64.4813 332.453 64.2343 332.453 63.9872L332.577 62.2578C332.577 62.0107 332.824 61.7637 333.071 61.7637H344.693C344.816 61.7637 344.94 61.7637 345.064 61.8872L345.806 62.7519C346.176 62.999 346.176 63.3695 345.929 63.4931Z" fill="#568AFF"/>
<path d="M347.538 64.4807L346.549 77.9454C346.549 78.4395 345.931 78.563 345.684 78.1924L344.077 76.463C343.953 76.3395 343.953 76.216 343.953 76.0924L344.695 66.2101C344.695 66.0866 344.819 65.963 344.819 65.8395L346.673 64.1101C347.044 63.7395 347.538 63.9865 347.538 64.4807Z" fill="#568AFF"/>
<path d="M348.652 48.5475L347.663 62.0122C347.663 62.5063 347.045 62.6299 346.797 62.2593L345.19 60.5299C345.066 60.4064 345.066 60.2828 345.066 60.1593L345.808 50.2769C345.808 50.1534 345.932 50.0299 345.932 49.9063L347.786 48.1769C348.157 47.8064 348.652 48.1769 348.652 48.5475Z" fill="#568AFF"/>
</g>
<path opacity="0.4" d="M325.773 85.2353C325.897 84.247 326.639 83.5059 327.628 83.5059H348.646C349.635 83.5059 350.5 84.3706 350.376 85.3588C350.253 86.347 349.511 87.0882 348.522 87.0882H327.504C326.515 87.0882 325.773 86.2235 325.773 85.2353Z" fill="#568AFF"/>
<path opacity="0.4" d="M299.566 85.2353C299.69 84.247 300.432 83.5059 301.421 83.5059H322.439C323.428 83.5059 324.293 84.3706 324.17 85.3588C324.046 86.347 323.304 87.0882 322.315 87.0882H301.297C300.308 87.0882 299.443 86.2235 299.566 85.2353Z" fill="#568AFF"/>
<path opacity="0.4" d="M273.231 85.2353C273.354 84.247 274.096 83.5059 275.085 83.5059H296.103C297.092 83.5059 297.957 84.3706 297.834 85.3588C297.71 86.347 296.968 87.0882 295.979 87.0882H274.961C273.972 87.0882 273.107 86.2235 273.231 85.2353Z" fill="#568AFF"/>
<path opacity="0.4" d="M246.898 85.2353C247.022 84.247 247.764 83.5059 248.753 83.5059H269.771C270.76 83.5059 271.625 84.3706 271.501 85.3588C271.378 86.347 270.636 87.0882 269.647 87.0882H248.629C247.64 87.0882 246.898 86.2235 246.898 85.2353Z" fill="#568AFF"/>
<path opacity="0.1" d="M188.912 187.023L196.701 129.829C197.195 126 200.657 123.035 204.49 123.035H261.732C265.565 123.035 268.161 126.123 267.666 129.829L259.877 187.023C259.383 190.853 255.921 193.817 252.088 193.817H194.846C191.014 193.817 188.417 190.729 188.912 187.023Z" fill="#263238"/>
<path opacity="0.1" d="M270.388 187.023L278.177 129.829C278.672 126 282.134 123.035 285.966 123.035H343.208C347.041 123.035 349.637 126.123 349.143 129.829L341.354 187.023C340.859 190.853 337.398 193.817 333.565 193.817H276.323C272.49 193.817 269.894 190.729 270.388 187.023Z" fill="#263238"/>
<path opacity="0.1" d="M177.908 268.43L185.697 211.236C186.191 207.406 189.653 204.441 193.486 204.441H250.728C254.561 204.441 257.157 207.53 256.662 211.236L248.873 268.43C248.379 272.259 244.917 275.224 241.085 275.224H183.842C180.01 275.224 177.413 272.135 177.908 268.43Z" fill="#263238"/>
<path opacity="0.1" d="M259.388 268.43L267.177 211.236C267.672 207.406 271.134 204.441 274.966 204.441H332.208C336.041 204.441 338.637 207.53 338.143 211.236L330.354 268.43C329.859 272.259 326.398 275.224 322.565 275.224H265.323C261.49 275.224 258.894 272.135 259.388 268.43Z" fill="#263238"/>
<path d="M185.08 187.023L192.869 129.829C193.363 126 196.825 123.035 200.658 123.035H257.9C261.733 123.035 264.329 126.123 263.834 129.829L256.045 187.023C255.551 190.853 252.089 193.817 248.256 193.817H191.014C187.182 193.817 184.585 190.729 185.08 187.023Z" fill="#568AFF"/>
<path opacity="0.2" d="M185.08 187.023L192.869 129.829C193.363 126 196.825 123.035 200.658 123.035H257.9C261.733 123.035 264.329 126.123 263.834 129.829L256.045 187.023C255.551 190.853 252.089 193.817 248.256 193.817H191.014C187.182 193.817 184.585 190.729 185.08 187.023Z" fill="white"/>
<path d="M266.554 187.023L274.343 129.829C274.838 126 278.299 123.035 282.132 123.035H339.374C343.207 123.035 345.803 126.123 345.309 129.829L337.52 187.023C337.025 190.853 333.563 193.817 329.731 193.817H272.489C268.78 193.817 266.06 190.729 266.554 187.023Z" fill="#568AFF"/>
<path opacity="0.2" d="M266.554 187.023L274.343 129.829C274.838 126 278.299 123.035 282.132 123.035H339.374C343.207 123.035 345.803 126.123 345.309 129.829L337.52 187.023C337.025 190.853 333.563 193.817 329.731 193.817H272.489C268.78 193.817 266.06 190.729 266.554 187.023Z" fill="white"/>
<path d="M174.076 268.43L181.865 211.236C182.359 207.406 185.821 204.441 189.654 204.441H246.896C250.729 204.441 253.325 207.53 252.83 211.236L245.041 268.43C244.547 272.259 241.085 275.224 237.253 275.224H180.01C176.178 275.224 173.581 272.135 174.076 268.43Z" fill="#568AFF"/>
<path opacity="0.2" d="M174.076 268.43L181.865 211.236C182.359 207.406 185.821 204.441 189.654 204.441H246.896C250.729 204.441 253.325 207.53 252.83 211.236L245.041 268.43C244.547 272.259 241.085 275.224 237.253 275.224H180.01C176.178 275.224 173.581 272.135 174.076 268.43Z" fill="white"/>
<path d="M255.553 268.43L263.341 211.236C263.836 207.406 267.298 204.441 271.13 204.441H328.373C332.205 204.441 334.801 207.53 334.307 211.236L326.518 268.43C326.023 272.259 322.562 275.224 318.729 275.224H261.487C257.654 275.224 255.058 272.135 255.553 268.43Z" fill="#568AFF"/>
<path opacity="0.2" d="M255.553 268.43L263.341 211.236C263.836 207.406 267.298 204.441 271.13 204.441H328.373C332.205 204.441 334.801 207.53 334.307 211.236L326.518 268.43C326.023 272.259 322.562 275.224 318.729 275.224H261.487C257.654 275.224 255.058 272.135 255.553 268.43Z" fill="white"/>
<path d="M221.182 182.206C217.35 182.206 214.753 179.118 215.248 175.288L219.822 141.441C220.317 137.612 223.902 134.523 227.611 134.523C231.444 134.523 234.04 137.612 233.546 141.441L228.971 175.288C228.477 179.118 225.015 182.206 221.182 182.206Z" fill="white"/>
<path d="M200.658 158.363C201.153 154.534 204.738 151.445 208.447 151.445H242.322C246.155 151.445 248.751 154.534 248.257 158.363C247.762 162.192 244.177 165.281 240.468 165.281H206.592C202.76 165.281 200.163 162.192 200.658 158.363Z" fill="white"/>
<path d="M194.353 256.693C192.004 253.976 192.622 249.652 195.713 246.935L222.912 222.97C226.003 220.252 230.33 220.252 232.679 222.97C235.028 225.688 234.41 230.011 231.319 232.729L204.12 256.693C201.029 259.288 196.578 259.288 194.353 256.693Z" fill="white"/>
<path d="M198.807 222.97C201.898 220.252 206.225 220.252 208.574 222.97L229.344 246.935C231.693 249.652 231.075 253.976 227.984 256.693C224.893 259.411 220.566 259.411 218.217 256.693L197.447 232.729C195.221 230.011 195.84 225.688 198.807 222.97Z" fill="white"/>
<path d="M282.131 158.363C282.625 154.534 286.211 151.445 289.92 151.445H323.795C327.628 151.445 330.224 154.534 329.729 158.363C329.235 162.192 325.65 165.281 321.941 165.281H288.065C284.232 165.281 281.636 162.192 282.131 158.363Z" fill="white"/>
<path d="M272.492 229.148C272.986 225.319 276.572 222.23 280.281 222.23H314.156C317.989 222.23 320.585 225.319 320.091 229.148C319.596 232.978 316.011 236.066 312.302 236.066H278.426C274.717 236.066 271.997 232.978 272.492 229.148Z" fill="white"/>
<path d="M269.644 250.519C270.139 246.69 273.724 243.602 277.433 243.602H311.308C315.141 243.602 317.737 246.69 317.243 250.519C316.748 254.349 313.163 257.437 309.454 257.437H275.578C271.869 257.313 269.15 254.225 269.644 250.519Z" fill="white"/>
<path d="M95.6916 113.276C93.4662 117.352 91.2408 121.799 89.139 126.246C87.0372 130.57 85.0591 135.017 83.3282 139.464C82.8337 140.576 82.4628 141.687 82.0919 142.799C81.8446 143.293 81.721 143.911 81.721 144.652C81.5974 146.011 81.9683 147.864 82.7101 149.717C84.1937 153.546 86.9136 157.623 89.7572 161.205L85.5536 166.146C84.3173 165.281 83.2046 164.54 82.2155 163.676C81.1028 162.811 80.1138 161.946 79.1247 160.958C77.1466 158.981 75.2921 156.881 73.6848 154.287C72.0776 151.693 70.8413 148.605 70.4704 145.023C70.3467 143.17 70.4704 141.193 70.9649 139.34C71.3358 138.105 71.5831 136.746 72.0776 135.511C73.5612 130.446 75.4157 125.505 77.5175 120.687C78.6302 118.34 79.6192 115.993 80.8556 113.646C82.0919 111.299 83.2046 109.076 84.6882 106.729L95.6916 113.276Z" fill="#FF8B7B"/>
<path d="M87.7752 159.725L93.9569 161.33L89.3825 170.225C89.3825 170.225 84.808 168.495 83.6953 164.419L87.7752 159.725Z" fill="#FF8B7B"/>
<path d="M102.492 164.169L96.9283 171.21L89.3867 170.346L93.9611 161.328L102.492 164.169Z" fill="#FF8B7B"/>
<path d="M124.746 66.2123C124.87 66.9535 125.365 67.3241 125.859 67.3241C126.354 67.2006 126.601 66.5829 126.477 65.9653C126.354 65.2241 125.859 64.8535 125.365 64.8535C124.87 64.8535 124.623 65.4712 124.746 66.2123Z" fill="#263238"/>
<path d="M125.363 67.3223C125.363 67.3223 127.712 71.0281 129.814 72.5105C128.825 73.8693 126.6 73.7458 126.6 73.7458L125.363 67.3223Z" fill="#FF5652"/>
<path d="M126.232 72.016C124.253 72.016 122.275 69.7925 121.657 66.8278C121.286 65.2219 121.41 63.616 121.904 62.3807C122.399 61.1454 123.264 60.2807 124.377 60.0337C125.49 59.7866 126.602 60.2807 127.591 61.269C128.581 62.2572 129.322 63.616 129.57 65.2219C129.94 66.8278 129.817 68.4336 129.322 69.6689C128.828 70.9042 127.962 71.769 126.85 72.016C126.602 72.016 126.479 72.016 126.232 72.016ZM124.995 60.2807C124.872 60.2807 124.624 60.2807 124.501 60.2807C123.512 60.5278 122.77 61.2689 122.275 62.3807C121.781 63.616 121.657 65.0984 122.028 66.5807C122.646 69.6689 124.748 71.8925 126.85 71.5219C127.839 71.2748 128.581 70.5337 129.075 69.4219C129.57 68.1866 129.693 66.7042 129.322 65.2219C128.951 63.7395 128.333 62.3807 127.468 61.3925C126.602 60.6513 125.737 60.2807 124.995 60.2807Z" fill="#263238"/>
<path d="M189.9 137.364L197.813 135.635L198.802 146.382C198.802 146.382 192.002 147.741 188.664 142.305L189.9 137.364Z" fill="#FF8B7B"/>
<path d="M205.354 138.105L204.86 145.888L198.925 146.382L197.812 135.635L205.354 138.105Z" fill="#FF8B7B"/>
<path d="M121.527 62.8775C121.404 62.8775 121.28 62.8775 121.28 62.754C121.157 62.6304 121.157 62.3834 121.28 62.1363C122.887 60.4069 124.742 60.7775 124.742 60.7775C124.989 60.7775 125.113 61.0246 125.113 61.2716C125.113 61.5187 124.866 61.6422 124.618 61.6422C124.618 61.6422 123.135 61.3951 121.898 62.754C121.775 62.8775 121.651 62.8775 121.527 62.8775Z" fill="#263238"/>
<path d="M105.703 78.6855C106.939 84.9855 107.681 93.8797 103.23 98.0797C103.23 98.0797 104.961 104.503 116.83 104.503C129.812 104.503 123.135 98.8208 123.135 98.8208C117.696 97.0914 117.819 91.0385 119.056 86.0973L105.703 78.6855Z" fill="#FF8B7B"/>
<path d="M119.059 96.4757C122.026 94.3757 126.353 91.9051 127.218 94.4992C127.713 96.1051 127.96 103.64 124.993 103.023C120.542 102.282 119.059 96.4757 119.059 96.4757Z" fill="#263238"/>
<path d="M100.757 102.282C99.6445 100.676 99.6445 95.4879 100.881 94.4997C102.859 93.0174 111.39 92.6468 122.888 95.3644C121.651 100.429 124.247 103.023 124.247 103.023L100.757 102.282Z" fill="#568AFF"/>
<path d="M62.1877 395.542C63.0531 395.789 63.9186 395.789 64.4131 395.418C64.5367 395.295 64.784 394.924 64.6604 394.43C64.5367 394.183 64.4131 393.936 64.1658 393.813C63.0531 393.195 60.3332 394.307 60.2096 394.43C60.0859 394.43 60.0859 394.554 60.0859 394.554C60.0859 394.677 60.0859 394.677 60.2096 394.801C60.4568 395.048 61.3223 395.418 62.1877 395.542ZM63.5477 394.183C63.6713 394.183 63.6713 394.183 63.7949 394.307C63.9186 394.43 64.0422 394.554 64.1658 394.677C64.2895 395.048 64.1658 395.171 64.0422 395.171C63.5477 395.542 61.8168 395.171 60.5805 394.677C61.4459 394.43 62.8059 394.06 63.5477 394.183Z" fill="#568AFF"/>
<path d="M60.085 394.922C61.1977 394.675 63.2995 393.193 63.2995 392.205C63.2995 392.081 63.2995 391.711 62.8049 391.587C62.5577 391.463 62.1868 391.463 61.9395 391.711C60.8268 392.328 60.085 394.675 59.9614 394.799C59.8377 394.675 59.9614 394.799 60.085 394.922C59.9614 394.922 59.9614 394.799 60.085 394.922ZM62.5577 391.834C62.9286 391.958 62.9286 392.081 62.9286 392.081C62.9286 392.699 61.5686 393.811 60.4559 394.305C60.7032 393.563 61.3213 392.205 62.0631 391.834C62.1868 391.834 62.3104 391.834 62.5577 391.834Z" fill="#568AFF"/>
<path d="M126.349 397.023C127.462 397.023 128.574 396.899 128.945 396.405C129.069 396.282 129.192 395.911 128.945 395.54C128.822 395.293 128.574 395.17 128.327 395.046C126.843 394.676 123.876 396.405 123.753 396.405C123.629 396.405 123.629 396.529 123.629 396.652C123.629 396.776 123.753 396.776 123.753 396.776C124.247 396.899 125.36 397.023 126.349 397.023ZM127.709 395.417C127.832 395.417 127.956 395.417 128.08 395.417C128.327 395.417 128.451 395.54 128.451 395.664C128.574 395.911 128.574 396.034 128.451 396.158C128.08 396.776 125.854 396.776 124.247 396.529C125.236 396.034 126.72 395.417 127.709 395.417Z" fill="#568AFF"/>
<path d="M123.753 396.775C124.866 396.281 126.967 394.428 126.844 393.44C126.844 393.193 126.597 392.946 126.102 392.822C125.731 392.822 125.237 392.946 124.989 393.193C123.877 394.058 123.629 396.405 123.629 396.528C123.506 396.652 123.629 396.775 123.753 396.775ZM125.855 393.316H125.978C126.349 393.316 126.349 393.44 126.349 393.563C126.473 394.181 124.989 395.663 124 396.281C124.124 395.54 124.371 394.181 125.113 393.563C125.36 393.316 125.607 393.316 125.855 393.316Z" fill="#568AFF"/>
<path d="M114.234 396.655H122.889L123.754 376.52H115.1L114.234 396.655Z" fill="#FF8B7B"/>
<path d="M50.3164 392.575L58.8471 394.428L67.3778 375.652L58.8471 373.799L50.3164 392.575Z" fill="#FF8B7B"/>
<path d="M59.7127 393.565L50.1929 391.464C49.822 391.341 49.4511 391.588 49.3275 391.835L45.9894 399C45.6185 399.741 46.113 400.606 46.8548 400.729C50.1929 401.347 51.9238 401.594 56.0037 402.459C58.6 403.076 64.4108 404.435 67.9961 405.176C71.4579 405.917 72.8178 402.582 71.4579 401.841C65.2762 399 62.5563 396.529 60.949 394.182C60.7018 393.935 60.2072 393.688 59.7127 393.565Z" fill="#263238"/>
<path d="M122.89 395.541H113.37C112.999 395.541 112.752 395.788 112.629 396.159L110.898 403.941C110.774 404.682 111.269 405.547 112.134 405.547C115.596 405.547 120.541 405.3 124.868 405.3C129.937 405.3 134.264 405.547 140.199 405.547C143.784 405.547 144.773 401.965 143.29 401.594C136.49 400.112 130.926 399.988 124.992 396.282C124.25 395.912 123.632 395.541 122.89 395.541Z" fill="#263238"/>
<path d="M87.6524 100.059C79.4926 101.912 72.8164 122.665 72.8164 122.665L89.136 135.141C89.136 135.141 95.194 129.459 97.7903 119.083C100.634 108.212 96.0595 98.0827 87.6524 100.059Z" fill="#568AFF"/>
<path opacity="0.4" d="M87.6524 100.059C79.4926 101.912 72.8164 122.665 72.8164 122.665L89.136 135.141C89.136 135.141 95.194 129.459 97.7903 119.083C100.634 108.212 96.0595 98.0827 87.6524 100.059Z" fill="white"/>
<path d="M136.616 109.941L150.34 122.541C152.565 124.641 154.914 126.741 157.263 128.718C159.489 130.818 161.838 132.794 164.063 134.647L162.209 133.659C163.321 134.03 164.434 134.4 165.547 134.771C166.783 135.018 167.896 135.388 169.132 135.636C171.605 136.13 174.201 136.377 176.921 136.624C179.641 136.871 182.237 136.994 185.081 137.118C187.801 137.241 190.644 137.241 193.364 137.241L194.724 143.665C191.757 144.777 189.037 145.518 186.07 146.136C183.103 146.753 180.135 147.247 177.168 147.494C174.201 147.741 171.11 147.865 167.896 147.618C164.681 147.371 161.467 146.877 158.252 146.012L157.263 145.765L156.274 145.024C153.554 142.924 151.205 140.947 148.733 138.847C146.383 136.747 143.911 134.647 141.562 132.547C136.864 128.347 132.289 124.024 127.715 119.7L136.616 109.941Z" fill="#FF8B7B"/>
<path opacity="0.2" d="M94.7051 115.377C90.2543 119.7 88.8943 127.73 88.5234 134.648L89.2652 135.265C89.2652 135.265 95.3233 129.583 97.9196 119.206C98.0432 118.589 98.1668 117.848 98.2905 117.23L94.7051 115.377Z" fill="black"/>
<path d="M139.209 108.704C140.94 118.092 142.052 137.363 136.983 175.534H90.4973C90.1264 168.369 94.7008 133.657 87.7773 99.9336C87.7773 99.9336 95.6899 98.3277 103.355 97.9572C109.29 97.7101 117.944 97.463 123.136 97.9572C125.362 98.2042 127.464 98.4513 129.318 98.8219C134.263 99.8101 138.22 103.763 139.209 108.704Z" fill="#568AFF"/>
<path opacity="0.4" d="M139.209 108.704C140.94 118.092 142.052 137.363 136.983 175.534H90.4973C90.1264 168.369 94.7008 133.657 87.7773 99.9336C87.7773 99.9336 95.6899 98.3277 103.355 97.9572C109.29 97.7101 117.944 97.463 123.136 97.9572C125.362 98.2042 127.464 98.4513 129.318 98.8219C134.263 99.8101 138.22 103.763 139.209 108.704Z" fill="white"/>
<path opacity="0.2" d="M132.042 122.662L140.449 120.686C140.697 125.75 140.696 132.05 140.326 139.833C136.493 135.386 131.548 128.591 132.042 122.662Z" fill="black"/>
<path opacity="0.2" d="M123.758 376.516L123.264 386.892H114.609L115.104 376.516H123.758Z" fill="black"/>
<path opacity="0.2" d="M58.8467 373.799L67.3774 375.652L63.0502 385.287L54.5195 383.558L58.8467 373.799Z" fill="black"/>
<path d="M101.624 69.4232C103.85 77.6996 104.715 82.7644 109.908 86.2232C117.697 91.4114 127.34 85.482 127.587 76.5879C127.835 68.682 124.126 56.3291 115.224 54.7232C106.322 52.9938 99.2753 61.0232 101.624 69.4232Z" fill="#FF8B7B"/>
<path d="M120.541 70.0409C124.497 69.5467 123.385 64.9762 121.901 62.7526C121.901 62.7526 130.555 52.2526 120.541 48.0526C110.527 43.8526 112.999 50.3997 112.999 50.3997C112.999 50.3997 105.21 44.4703 98.4107 49.2879C91.6108 53.982 97.4216 56.082 97.4216 56.082C97.4216 56.082 85.0583 59.6644 90.0036 65.9644C94.9489 72.2644 100.018 71.6467 100.018 71.6467C100.018 71.6467 89.7563 75.7232 97.5452 80.1703C105.334 84.7409 108.301 84.8644 108.301 84.8644C112.628 85.3585 116.708 82.7644 117.945 78.5644L120.541 70.0409Z" fill="#263238"/>
<path d="M117.08 70.0412C117.204 72.2647 118.316 74.3647 119.553 75.847C121.407 77.947 123.385 76.5882 123.756 74.1176C124.004 71.7706 123.385 67.9412 121.16 66.8294C118.811 65.5941 116.956 67.447 117.08 70.0412Z" fill="#FF8B7B"/>
<path d="M120.413 175.535C120.413 175.535 110.523 241.994 105.083 266.823C99.1484 294.123 67.3747 384.176 67.3747 384.176L51.7969 380.841C51.7969 380.841 74.0509 307.341 78.9962 269.294C82.8288 240.018 90.3705 175.535 90.3705 175.535H120.413Z" fill="#263238"/>
<path d="M71.087 378.988C71.2106 378.988 68.2434 384.67 68.2434 384.67L50.6875 380.841L52.1711 375.529L71.087 378.988Z" fill="#568AFF"/>
<path opacity="0.3" d="M114.234 199.252C102.86 201.475 103.973 243.969 105.456 265.834C108.794 250.393 113.616 220.622 116.831 199.499C115.965 199.128 115.1 199.005 114.234 199.252Z" fill="black"/>
<path d="M136.856 175.535C136.856 175.535 138.093 240.512 137.104 266.947C136.115 294.494 126.471 384.794 126.471 384.794H111.759C111.759 384.794 111.264 296.223 110.522 269.047C109.781 239.523 106.195 175.535 106.195 175.535H136.856Z" fill="#263238"/>
<path d="M129.443 378.99C129.567 378.99 128.578 385.043 128.578 385.043H110.651L110.156 379.608L129.443 378.99Z" fill="#568AFF"/>
<path d="M120.911 111.549C116.708 122.79 141.187 136.007 141.187 136.007L151.82 122.419C151.82 122.419 144.772 108.337 136.118 102.037C125.362 94.1309 124.126 103.025 120.911 111.549Z" fill="#568AFF"/>
<path opacity="0.4" d="M120.911 111.549C116.708 122.79 141.187 136.007 141.187 136.007L151.82 122.419C151.82 122.419 144.772 108.337 136.118 102.037C125.362 94.1309 124.126 103.025 120.911 111.549Z" fill="white"/>
<path d="M191.384 140.701C193.091 140.701 194.475 139.705 194.475 138.477C194.475 137.249 193.091 136.254 191.384 136.254C189.677 136.254 188.293 137.249 188.293 138.477C188.293 139.705 189.677 140.701 191.384 140.701Z" fill="#263238"/>
<path d="M190.147 145.762C190.024 145.762 189.776 145.639 189.653 145.515C189.406 145.268 189.406 144.898 189.776 144.651C189.9 144.527 191.384 143.168 190.766 139.833C190.642 139.462 190.889 139.215 191.26 139.092C191.631 139.092 191.878 139.215 192.002 139.586C192.867 143.662 190.642 145.515 190.642 145.639C190.395 145.639 190.271 145.762 190.147 145.762Z" fill="#263238"/>
<path opacity="0.4" d="M193.855 138.35C193.855 139.339 192.743 140.08 191.383 140.08C190.023 140.08 188.91 139.339 188.91 138.35C188.91 137.362 190.023 136.621 191.383 136.621C192.743 136.621 193.855 137.362 193.855 138.35Z" fill="white"/>
<path d="M124.745 98.2042C119.058 102.281 109.167 117.969 107.436 127.234C107.436 127.481 107.065 127.604 106.818 127.357C98.5348 114.263 97.6693 100.798 97.5457 98.5748C97.5457 98.4512 97.4221 98.3277 97.1748 98.3277C96.3094 98.4513 94.084 98.5748 93.0949 98.8218C92.9713 98.8218 92.8477 98.9454 92.8477 99.1924C93.5895 116.734 102.367 130.075 105.829 134.275C105.829 134.275 105.953 134.398 105.953 134.522C105.211 148.481 106.2 173.31 106.324 176.275C106.324 176.398 106.447 176.522 106.571 176.522H110.28C110.404 176.522 110.651 176.398 110.527 176.151C110.404 173.31 109.167 151.692 110.527 134.028C112.629 120.81 125.116 103.022 129.443 99.563C129.69 99.4395 129.567 99.0689 129.319 99.0689C127.465 98.6983 125.363 98.4513 124.869 98.3277C124.869 98.0807 124.869 98.0807 124.745 98.2042Z" fill="#568AFF"/>
</g>
<defs>
<clipPath id="clip0_405_1808">
<rect width="421" height="420" fill="white"/>
</clipPath>
</defs>
</svg>
